<?xml version="1.0" standalone="no"?>
<!DOCTYPE svg PUBLIC "-//W3C//DTD SVG 20010904//EN"
 "http://www.w3.org/TR/2001/REC-SVG-20010904/DTD/svg10.dtd">
<svg version="1.0" xmlns="http://www.w3.org/2000/svg"
 width="120.000000pt" height="120.000000pt" viewBox="0 0 120.000000 120.000000"
 preserveAspectRatio="xMidYMid meet">

<g transform="translate(0.000000,120.000000) scale(0.100000,-0.100000)"
fill="#000000" stroke="none">
<path d="M60 720 c0 -14 14 -17 83 -18 68 -2 84 0 84 12 0 8 -6 17 -14 20 -7
3 -13 1 -13 -5 0 -6 -5 -7 -11 -3 -6 3 -15 0 -20 -7 -7 -11 -9 -10 -9 4 0 14
-4 16 -17 9 -10 -5 -24 -7 -32 -4 -8 2 -11 0 -8 -5 3 -5 -1 -10 -9 -10 -8 0
-13 6 -10 12 2 6 -2 12 -10 12 -8 0 -14 -8 -14 -17z"/>
<path d="M50 595 l0 -85 550 0 550 0 0 85 0 85 -550 0 -550 0 0 -85z m74 59
c24 -9 21 -61 -4 -69 -13 -4 -20 -15 -20 -32 0 -46 -25 -18 -28 32 -5 72 6 86
52 69z m241 -5 c4 -6 -2 -13 -14 -16 -28 -7 -27 -30 2 -36 l22 -4 -22 -8 c-15
-5 -23 -15 -23 -31 0 -13 -4 -24 -10 -24 -6 0 -10 28 -10 65 0 62 1 65 24 65
14 0 28 -5 31 -11z m293 -46 c3 80 22 64 22 -18 0 -63 -1 -64 -22 -56 -19 7
-24 17 -26 56 -5 74 11 91 18 20 l7 -60 1 58z m132 47 c0 -5 -4 -10 -10 -10
-5 0 -10 -9 -10 -20 0 -11 5 -20 10 -20 6 0 5 -8 -2 -21 -11 -17 -10 -22 6
-35 19 -14 19 -14 -2 -14 -20 0 -22 5 -22 65 0 51 3 65 15 65 8 0 15 -4 15
-10z m120 -57 c0 -56 -2 -63 -20 -63 -18 0 -20 7 -20 63 0 56 2 63 20 63 18 0
20 -7 20 -63z m102 5 c-2 -35 -6 -65 -8 -67 -8 -9 -12 6 -16 67 -4 52 -2 62
12 62 14 0 16 -10 12 -62z m116 34 c2 -13 -3 -31 -11 -40 -8 -9 -17 -28 -20
-42 -2 -14 -5 6 -6 43 -1 60 1 68 17 65 9 -2 18 -14 20 -26z m-637 1 c6 -47 3
-103 -6 -100 -11 4 -25 75 -18 94 6 14 22 18 24 6z m-291 -22 c0 -6 -4 -13
-10 -16 -5 -3 -10 -19 -10 -36 0 -16 -4 -29 -10 -29 -5 0 -10 20 -10 45 0 38
3 45 20 45 11 0 20 -4 20 -9z m75 -36 c0 -36 -2 -40 -25 -40 -20 0 -26 6 -28
28 -5 42 5 59 30 55 20 -3 23 -9 23 -43z m160 0 c0 -31 -4 -41 -19 -43 -32 -7
-50 50 -24 76 24 24 43 9 43 -33z m140 0 c0 -31 -4 -41 -19 -43 -32 -7 -50 50
-24 76 24 24 43 9 43 -33z"/>
<path d="M100 621 c0 -12 5 -21 10 -21 6 0 10 6 10 14 0 8 -4 18 -10 21 -5 3
-10 -3 -10 -14z"/>
<path d="M1102 620 c0 -14 2 -19 5 -12 2 6 2 18 0 25 -3 6 -5 1 -5 -13z"/>
<path d="M240 575 c0 -14 5 -25 10 -25 6 0 10 11 10 25 0 14 -4 25 -10 25 -5
0 -10 -11 -10 -25z"/>
<path d="M403 584 c-3 -8 -1 -20 6 -27 8 -8 11 -4 11 16 0 30 -7 35 -17 11z"/>
<path d="M552 575 c0 -16 2 -22 5 -12 2 9 2 23 0 30 -3 6 -5 -1 -5 -18z"/>
<path d="M607 470 c-6 -23 3 -26 22 -7 11 9 12 9 7 0 -5 -9 -2 -11 8 -7 9 3
16 1 16 -5 0 -8 6 -9 19 -2 10 6 21 8 24 4 4 -3 33 -5 64 -4 32 1 72 2 89 1
29 0 54 23 39 38 -3 3 -5 0 -5 -6 0 -6 -7 -9 -15 -6 -9 4 -15 0 -15 -7 0 -9
-3 -10 -8 -3 -9 14 -85 13 -94 -1 -5 -7 -8 -6 -8 2 0 6 -11 10 -25 9 -13 -2
-22 1 -19 5 3 5 0 9 -5 9 -6 0 -11 -4 -11 -10 0 -5 -6 -8 -12 -6 -52 16 -66
15 -71 -4z"/>
<path d="M916 483 c-3 -3 -6 -11 -6 -17 0 -16 92 -19 102 -3 6 9 8 9 8 0 0 -7
7 -13 15 -13 8 0 15 6 15 13 0 9 -13 14 -35 15 -26 1 -34 -2 -28 -11 4 -7 -1
-6 -11 3 -20 16 -50 23 -60 13z"/>
<path d="M1066 474 c-8 -20 -8 -24 2 -24 4 0 8 9 9 20 2 24 -3 26 -11 4z"/>
<path d="M1120 481 c0 -7 -4 -10 -9 -7 -5 3 -11 -1 -15 -9 -4 -11 1 -15 19
-15 30 0 39 14 20 30 -11 9 -15 9 -15 1z"/>
</g>
</svg>
